<svg width="58" height="58" viewBox="0 0 58 58" fill="none" xmlns="http://www.w3.org/2000/svg">
<path d="M27.0195 2.53223C27.0195 1.15152 25.8979 0.0202217 24.5231 0.147884C21.8333 0.397652 19.1915 1.05013 16.6871 2.08748C13.4113 3.44436 10.4348 5.43316 7.92765 7.94035C5.42047 10.4475 3.43166 13.424 2.07478 16.6998C1.03743 19.2042 0.384956 21.846 0.135189 24.5358C0.0075264 25.9106 1.13882 27.0322 2.51953 27.0322L24.5195 27.0322C25.9002 27.0322 27.0195 25.9129 27.0195 24.5322V2.53223Z" fill="#D64550"/>
<circle cx="44.5" cy="13.5" r="13.5" fill="#2A61A0"/>
<rect y="31" width="27" height="27" rx="3.5" fill="#EF8D42"/>
<path fill-rule="evenodd" clip-rule="evenodd" d="M55.8715 46.6267C55.2178 46.1294 54.9121 45.3213 54.9121 44.5C54.9121 43.6787 55.2178 42.8706 55.8715 42.3733L57.7434 40.9495C58.0071 40.747 58.0765 40.3825 57.9099 40.0855L55.1342 35.4145C55.0093 35.1985 54.7733 35.077 54.5235 35.077C54.4402 35.077 54.357 35.0905 54.2876 35.1175L52.0673 35.9848C51.299 36.285 50.4433 36.15 49.7265 35.7418C48.9873 35.3209 48.4099 34.6265 48.2858 33.785L47.9589 31.567C47.9172 31.243 47.6258 31 47.2788 31H41.7273C41.3804 31 41.0889 31.243 41.0473 31.567L40.7216 33.7758C40.5967 34.623 40.0137 35.325 39.2712 35.7518C38.5602 36.1604 37.712 36.2869 36.9481 35.9885L34.7186 35.1175C34.6353 35.0905 34.552 35.077 34.4688 35.077C34.2328 35.077 33.9969 35.1985 33.872 35.4145L31.0962 40.0855C30.9158 40.3825 30.9991 40.747 31.2628 40.9495L33.1346 42.3733C33.7883 42.8706 34.094 43.6787 34.094 44.5C34.094 45.3213 33.7883 46.1294 33.1346 46.6267L31.2628 48.0505C30.9991 48.253 30.9297 48.6175 31.0962 48.9145L33.872 53.5855C33.9969 53.8015 34.2328 53.923 34.4826 53.923C34.5659 53.923 34.6492 53.9095 34.7186 53.8825L36.9388 53.0152C37.7071 52.715 38.5628 52.85 39.2796 53.2582C40.0188 53.6791 40.5962 54.3735 40.7203 55.215L41.0473 57.433C41.0889 57.757 41.3804 58 41.7273 58H47.2788C47.6258 58 47.9172 57.757 47.9589 57.433L48.2845 55.2242C48.4094 54.377 48.9924 53.675 49.7349 53.2482C50.4459 52.8396 51.2941 52.7131 52.058 53.0115L54.2876 53.8825C54.3708 53.9095 54.4541 53.923 54.5374 53.923C54.7733 53.923 55.0093 53.8015 55.1342 53.5855L57.9099 48.9145C58.0765 48.6175 58.0071 48.253 57.7434 48.0505L55.8715 46.6267ZM44.5 48C46.433 48 48 46.433 48 44.5C48 42.567 46.433 41 44.5 41C42.567 41 41 42.567 41 44.5C41 46.433 42.567 48 44.5 48Z" fill="#1F1F1F"/>
<circle cx="44.5" cy="13.5" r="13.5" fill="#2A61A0"/>
</svg>
